<svg xmlns="http://www.w3.org/2000/svg" width="512" height="512" viewBox="0 0 60 60"><g fill-rule="nonzero" fill="none"><path d="M44.75 1c-.51 0-1.01.02-1.51.07C49.7 1.72 50 6.74 50 11.57V24l-3.07 4.48 2.82.27L53 24V11.57C53 6.39 52.65 1 44.75 1zm-7.7 5.66a1 1 0 0 0 1.41.63 13.267 13.267 0 0 1 4.33-1.22A14.3 14.3 0 0 0 41.06 6a12.96 12.96 0 0 0-4.01.66z" fill="#CAD9FC"/><path d="M43.24 1.07a15.922 15.922 0 0 0-6.35 1.85.989.989 0 0 0-.46 1.08l.61 2.63c0 .01.01.02.01.03A12.96 12.96 0 0 1 41.06 6a14.3 14.3 0 0 1 1.73.07c.422-.048.846-.072 1.27-.07.93-.062 1.862.05 2.75.33a2.019 2.019 0 0 1 1.31 2.13c.01.848-.03 1.696-.12 2.54-3.81-.02-7.88.1-10.78 2.9a8.922 8.922 0 0 0-2.49 8.9 7.5 7.5 0 0 0 7.1 5.19l5.1.49L50 24V11.57c0-4.83-.3-9.85-6.76-10.5zM48 19.29c-.01.412-.084.82-.22 1.21a5.2 5.2 0 0 1-5.05 3.5 4.033 4.033 0 0 1-1.4-.23 3.306 3.306 0 0 1-2.19-3.4c0-3.09 2.73-4.06 5.86-4.31.99-.08 2.01-.08 3-.06v3.29z" fill="#E8EDFC"/><path d="M56.96 23.46a1.218 1.218 0 0 0-1.37-.39l-.32.12v.02c.001.327-.128.64-.36.87a1.21 1.21 0 0 1 1.48-.19 1.2 1.2 0 0 1 .61 1.05c.15-.21.23-.462.23-.72a1.2 1.2 0 0 0-.27-.76zm1.64 1.63a1.1 1.1 0 0 0-.25-.19 1.221 1.221 0 0 0-.61-.17 1.182 1.182 0 0 0-.74.25c0 .13-.024.259-.07.38l-6.7 18.75a1.433 1.433 0 0 1-.35.56l-2.98 2.97c-.205.212-.47.355-.76.41l-6.18 1.24a1.524 1.524 0 0 0-.77.41l-.86.86c-.04-.09-.46.5-.82.95L39 53c.12.12 1.22-1.58 1.29-1.43l.86-.86c.211-.209.479-.351.77-.41l6.18-1.24c.29-.055.555-.198.76-.41l2.98-2.97c.159-.157.279-.349.35-.56l6.7-18.75a1.218 1.218 0 0 0-.29-1.28z" fill="#CAD9FC"/><path d="M56.87 25.09a.689.689 0 0 1 .13-.11v-.04c-.04.052-.084.103-.13.15z" fill="#CAD9FC"/><path d="M57 24.94a1.2 1.2 0 0 0-.61-1.05 1.21 1.21 0 0 0-1.48.19c.232-.23.361-.543.36-.87v-.02l-18.43 6.58a1.433 1.433 0 0 0-.56.35l-2.97 2.98c-.212.205-.355.47-.41.76l-1.24 6.18a1.524 1.524 0 0 1-.41.77l-.86.86c.15.07-1.51 1.21-1.39 1.33l8.51 8.51c.36-.45.78-1.04.82-.95l.86-.86c.211-.209.479-.351.77-.41l6.18-1.24c.29-.055.555-.198.76-.41l2.98-2.97c.159-.157.279-.349.35-.56l6.7-18.75c.046-.121.07-.25.07-.38a.689.689 0 0 0-.13.11c.046-.047.09-.098.13-.15zm-9.87 14.13a2.994 2.994 0 0 1-4.25 0 .806.806 0 0 1-.12-.14 2.989 2.989 0 0 1 2.54-4.96c.355.028.7.123 1.02.28a3 3 0 0 1 .81 4.82z" fill="#E8EDFC"/><path d="M28 24h-.42l-2.08-5-1.67-4-5.57-13.38a1 1 0 0 0-.93-.62h-3a1 1 0 0 1 .93.62L20.83 15l1.67 4 2.08 5H25a2.006 2.006 0 0 1 2 2v1a1 1 0 0 1-1 1h3a1 1 0 0 0 1-1v-1a2.006 2.006 0 0 0-2-2z" fill="#CAD9FC"/><path d="M25 24h-.42l-2.08-5-1.67-4-5.57-13.38a1 1 0 0 0-.93-.62h-.66a1 1 0 0 0-.93.62L7.17 15 5.5 19l-2.08 5H3a2.006 2.006 0 0 0-2 2v1a1 1 0 0 0 1 1h6a1 1 0 0 0 1-1v-1a2.014 2.014 0 0 0-1.6-1.96l1.84-4.42a1 1 0 0 1 .93-.62h9.66a1 1 0 0 1 .93.62l2 4.81A2.022 2.022 0 0 0 22 26v1a1 1 0 0 0 1 1h3a1 1 0 0 0 1-1v-1a2.006 2.006 0 0 0-2-2zm-6.92-9h-6.16a.5.5 0 0 1-.46-.69l2.04-4.9 1.04-2.5a.5.5 0 0 1 .92 0l3.08 7.4a.5.5 0 0 1-.46.69z" fill="#E8EDFC"/><path d="M39 54.32l-1.77 1.77-11.32-11.32.29-.28L27.68 43a1.519 1.519 0 0 1 1.71-.29c.152.072.291.17.41.29l9.2 9.2c.12.119.218.258.29.41.27.575.155 1.257-.29 1.71z" fill="#7FACFA"/><path d="M37.23 56.09l-2.48 2.47a1.491 1.491 0 0 1-2.12 0l-9.19-9.19a1.4 1.4 0 0 1-.43-1 1.424 1.424 0 0 1 .43-1.12l2.47-2.48 11.32 11.32z" fill="#7FACFA"/><path d="M38 51.2c.022.417-.134.825-.43 1.12l-1.77 1.77-9.6-9.6L27.68 43a1.519 1.519 0 0 1 1.71-.29c.152.072.291.17.41.29l8.2 8.2zM35.8 54.09l-.29.28-2.19 2.19a1.491 1.491 0 0 1-2.12 0l-8.19-8.19a1.424 1.424 0 0 1 .43-1.12l2.47-2.48.29-.28 9.6 9.6z" fill="#A4C2F7"/><path d="M1.625 28.042h3a1 1 0 0 1-1-1v-1a2.006 2.006 0 0 1 2-2h.42l2.08-5 1.67-4 5.57-13.38a1 1 0 0 1 .93-.62h-3a1 1 0 0 0-.93.62L6.8 15.042l-1.67 4-2.08 5h-.42a2.006 2.006 0 0 0-2 2v1a1 1 0 0 0 .995 1z" fill="#FFF"/><path d="M29 29h-6a2 2 0 0 1-2-2v-1a2.983 2.983 0 0 1 .588-1.783L19.833 20h-9.666L8.7 23.53A3.013 3.013 0 0 1 10 26v1a2 2 0 0 1-2 2H2a2 2 0 0 1-2-2v-1a3.005 3.005 0 0 1 2.749-2.99l1.827-4.392L11.82 1.233A2 2 0 0 1 13.667 0h3.666a2 2 0 0 1 1.847 1.231l9.071 21.779A3.005 3.005 0 0 1 31 26v1a2 2 0 0 1-2 2zM10.167 18h9.666a2 2 0 0 1 1.847 1.231l2 4.815a1 1 0 0 1-.3 1.163A1.031 1.031 0 0 0 23 26v1h6v-1a1 1 0 0 0-1-1h-.42a1 1 0 0 1-.923-.616L17.333 2h-3.666l-.006.014-7.238 17.371-2.079 5A1 1 0 0 1 3.42 25H3a1 1 0 0 0-1 1v1h6v-1a1.01 1.01 0 0 0-.8-.981 1 1 0 0 1-.719-1.364l1.84-4.425A1.994 1.994 0 0 1 10.167 18zm7.913-2h-6.16a1.5 1.5 0 0 1-1.385-2.077l3.08-7.4a1.5 1.5 0 0 1 2.769 0l3.081 7.4A1.5 1.5 0 0 1 18.08 16zm-5.411-2h4.662L15 8.4 12.669 14zM37.228 57.045a.993.993 0 0 1-.707-.293L25.207 45.439a1 1 0 0 1 1.414-1.414l11.314 11.313a1 1 0 0 1-.707 1.707z" fill="#428DFF"/><path d="M33.692 59.958a2.491 2.491 0 0 1-1.767-.73l-9.193-9.193a2.5 2.5 0 0 1 0-3.535l4.243-4.243a2.5 2.5 0 0 1 3.535 0l9.19 9.192a2.5 2.5 0 0 1 0 3.536l-4.24 4.243a2.491 2.491 0 0 1-1.768.73zm-4.949-16.433a.5.5 0 0 0-.354.146l-4.243 4.243a.5.5 0 0 0 0 .707l9.193 9.192a.5.5 0 0 0 .707 0l4.243-4.242a.5.5 0 0 0 0-.708L29.1 43.671a.5.5 0 0 0-.357-.146z" fill="#428DFF"/><path d="M29.45 43.61a1 1 0 0 1-.707-1.707l1.8-1.8a.5.5 0 0 0 .137-.255l1.236-6.181c.096-.484.334-.929.684-1.277l2.975-2.976c.262-.261.579-.461.927-.586l18.754-6.7a2.225 2.225 0 0 1 2.323 3.672l-9.745 9.744a1 1 0 0 1-1.414-1.414l9.745-9.744a.225.225 0 0 0-.236-.368l-18.754 6.7a.5.5 0 0 0-.186.117L34.014 33.8a.5.5 0 0 0-.138.256l-1.235 6.18a2.49 2.49 0 0 1-.685 1.278l-1.8 1.8a1 1 0 0 1-.706.296z" fill="#428DFF"/><path d="M39.349 53.51a1 1 0 0 1-.707-1.707l1.8-1.8c.349-.35.794-.588 1.278-.684l6.18-1.236a.5.5 0 0 0 .256-.137l2.976-2.976a.507.507 0 0 0 .117-.185l6.7-18.755a.221.221 0 0 0-.052-.23.192.192 0 0 0-.316 0l-9.745 9.744a1 1 0 0 1-1.414-1.414l9.745-9.744a2.272 2.272 0 0 1 3.139 0c.604.607.807 1.506.524 2.314l-6.7 18.755a2.5 2.5 0 0 1-.586.926L49.57 49.36c-.349.35-.794.588-1.278.684l-6.18 1.236a.5.5 0 0 0-.256.137l-1.8 1.8a1 1 0 0 1-.707.293z" fill="#428DFF"/><path d="M45.006 40.954a4 4 0 1 1 2.828-1.172 3.969 3.969 0 0 1-2.828 1.172zm0-6a2 2 0 0 0-1.414 3.414 2.048 2.048 0 0 0 2.828 0 2 2 0 0 0-1.414-3.414zM41.831 28.99h-.051a8.54 8.54 0 0 1-8.008-5.9 9.968 9.968 0 0 1 2.753-9.9c2.863-2.764 6.607-3.157 10.562-3.181.02-.569.033-1.278.033-1.54.015-.771-.249-1.029-.682-1.2A6.83 6.83 0 0 0 44.135 7c-1.814.003-3.604.41-5.241 1.191a2.019 2.019 0 0 1-1.747.008 1.985 1.985 0 0 1-1.08-1.338l-.611-2.635a2 2 0 0 1 .951-2.182A17.593 17.593 0 0 1 44.75 0C54 0 54 7.243 54 11.57V24a1 1 0 0 1-2 0V11.57C52 5.966 51.48 2 44.75 2c-2.568-.02-5.1.595-7.372 1.792l.636 2.608A14.2 14.2 0 0 1 44.143 5a8.113 8.113 0 0 1 3.035.4 2.985 2.985 0 0 1 1.942 3.08c0 2.628 0 3.52-1.12 3.52-4.005-.025-7.539.162-10.085 2.619a7.952 7.952 0 0 0-2.227 7.892 6.484 6.484 0 0 0 6.192 4.481 1 1 0 0 1-.049 2v-.002zm.895-3.99a4.364 4.364 0 0 1-4.588-4.631 4.539 4.539 0 0 1 1.337-3.379c1.909-1.87 5.389-2.052 8.546-1.99A1 1 0 0 1 49 16v3.288c-.01.52-.1 1.034-.268 1.526A6.216 6.216 0 0 1 42.726 25zM47 16.99c-2.238.007-4.906.234-6.125 1.429a2.58 2.58 0 0 0-.737 1.95A2.389 2.389 0 0 0 42.726 23a4.18 4.18 0 0 0 4.111-2.825c.1-.286.154-.585.163-.887V16.99zM28 36H3a1 1 0 0 1 0-2h25a1 1 0 0 1 0 2z" fill="#428DFF"/><path d="M3 40a1 1 0 0 1-1-1v-8a1 1 0 0 1 2 0v8a1 1 0 0 1-1 1zM28 40a1 1 0 0 1-1-1v-8a1 1 0 0 1 2 0v8a1 1 0 0 1-1 1z" fill="#428DFF"/><path fill="#FFF" d="M4.577 18.615L9.578 6.616l2.243-5.385L13.667 2l-2.243 5.385-5.001 12z"/><path d="M7.426 14.386a1 1 0 0 0-1.308.538l-1.541 3.691 1.846.77 1.541-3.691a1 1 0 0 0-.538-1.308zM13.667 2l-1.846-.769-2.627 6.308a1 1 0 1 0 1.846.769L13.667 2zM7.656 11.232c-.097.247-.097.52 0 .767l.092.168a.767.767 0 0 0 .132.153c.041.048.09.09.143.124.057.036.116.067.177.095.245.099.52.101.766.006.502-.222.742-.798.546-1.311a1.048 1.048 0 0 0-.223-.321.991.991 0 0 0-1.628.319h-.005z" fill="#428DFF"/></g></svg>